# xmcd
#
# Track frame offsets: 
#        150
#        17856
#        36761
#        57466
#        77421
#        94226
#        111632
#        130537
#        148993
#        169547
#        182666
#        203072
#        221828
#
# Disc length: 3105 seconds
#
# Revision: 0
# Processed by: cddbd v1.5.1PL0 Copyright (c) Steve Scherf et al.
# Submitted via: ExactAudioCopy v0.95a5
#
DISCID=bb0c1f0d
DTITLE=Lee Ann Womack - There's More Where That Came From
DYEAR=1900
DGENRE=
TTITLE0=There's More Where That Came From
TTITLE1=One's A Couple
TTITLE2=I May Hate Myself In The Morning
TTITLE3=The Last Time
TTITLE4=He Oughta Know That By Now
TTITLE5=Twenty Years And Two Husbands Ago
TTITLE6=Happiness
TTITLE7=When You Get To Me
TTITLE8=Painless
TTITLE9=What I Miss About Heaven
TTITLE10=Waiting For The Sun To Shine
TTITLE11=Stubborn (Psalm 151)
TTITLE12=Just Someone I Used To Know (Bonus)
EXTD=
EXTT0=
EXTT1=
EXTT2=
EXTT3=
EXTT4=
EXTT5=
EXTT6=
EXTT7=
EXTT8=
EXTT9=
EXTT10=
EXTT11=
EXTT12=
PLAYORDER=
